<!-- Generator: Adobe Illustrator 19.0.0, SVG Export Plug-In . SVG Version: 6.00 Build 0)  -->
<svg version="1.1" id="Layer_1" xmlns="http://www.w3.org/2000/svg" xmlns:xlink="http://www.w3.org/1999/xlink" x="0px" y="0px"
	 viewBox="0 0 511.999 511.999" style="enable-background:new 0 0 511.999 511.999;" xml:space="preserve">
<polygon style="fill:#FF7B78;" points="255.999,465.207 215.013,503.313 188.621,453.964 137.483,476.697 128.545,421.452 
	72.797,426.348 82.279,371.195 27.962,357.725 54.841,308.638 7.839,278.261 49.199,240.562 14.609,196.57 65.969,174.343 
	47.536,121.502 103.331,117.156 103.054,61.193 157.236,75.199 175.146,22.18 221.844,53.019 255.999,8.688 290.154,53.019 
	336.853,22.18 354.762,75.199 408.945,61.193 408.669,117.156 464.463,121.502 446.03,174.343 497.39,196.57 462.799,240.562 
	504.159,278.261 457.159,308.638 484.036,357.725 429.719,371.195 439.203,426.348 383.454,421.452 374.515,476.697 
	323.377,453.964 296.985,503.313 "/>
<circle style="fill:#FFD77A;" cx="256.001" cy="255.782" r="212.246"/>
<path style="opacity:0.1;enable-background:new    ;" d="M96.014,255.786c0-108.374,81.225-197.769,186.118-210.648
	c-8.564-1.052-17.284-1.602-26.132-1.602c-117.223,0-212.25,95.028-212.25,212.25c0,117.223,95.027,212.25,212.25,212.25
	c8.848,0,17.568-0.551,26.132-1.602C177.239,453.554,96.014,364.16,96.014,255.786z"/>
<path style="fill:#2D2C33;" d="M314.55,300.327c-5.94-13.735-21.859-20.079-35.606-14.212c-2.155,0.773-10.465,2.333-22.945,2.333
	c-12.482,0-20.793-1.56-22.948-2.334c-13.748-5.858-29.664,0.483-35.604,14.219c-4.775,11.048-1.638,23.517,6.894,31.097
	l51.658-3.584l51.657,3.584C316.191,323.849,319.328,311.376,314.55,300.327z"/>
<path style="fill:#FF7B78;" d="M256,342.805c10.755,0,30.823-0.876,44.392-6.744c2.727-1.18,5.158-2.757,7.265-4.63
	c-8.357-10.879-28.333-18.541-51.657-18.541s-43.3,7.662-51.657,18.542c2.108,1.873,4.541,3.453,7.271,4.633
	C225.184,341.929,245.248,342.805,256,342.805z"/>
<path style="opacity:0.1;enable-background:new    ;" d="M275.774,314.824c-6.147-1.248-12.809-1.936-19.774-1.936
	c-23.325,0-43.3,7.662-51.657,18.542c2.108,1.873,4.541,3.453,7.271,4.633c3.339,1.443,7.071,2.581,10.96,3.481
	C232.81,327.719,252.147,318.619,275.774,314.824z"/>
<circle cx="170.058" cy="252.312" r="15.861"/>
<circle cx="341.945" cy="252.312" r="15.861"/>
<path d="M475.623,241.643c-0.092-1.439-0.193-2.876-0.314-4.307l28.244-35.92c1.503-1.912,2.034-4.413,1.437-6.77
	c-0.597-2.357-2.255-4.304-4.486-5.27l-41.183-17.823c-0.718-1.727-1.456-3.443-2.217-5.148l14.762-42.319
	c0.801-2.296,0.491-4.834-0.839-6.87c-1.331-2.035-3.53-3.34-5.954-3.528l-44.123-3.437c-1.437-1.628-2.899-3.234-4.383-4.819
	l0.218-44.199c0.011-2.432-1.106-4.732-3.025-6.226c-1.918-1.494-4.422-2.012-6.777-1.404l-42.205,10.911
	c-2.164-1.236-4.355-2.428-6.563-3.592l-13.934-41.251c-0.779-2.304-2.582-4.116-4.882-4.906c-2.3-0.79-4.837-0.467-6.865,0.873
	l-36.047,23.804c-2.626-0.49-5.266-0.938-7.923-1.334L262.21,3.903c-1.484-1.926-3.779-3.055-6.21-3.055
	c-2.431,0-4.726,1.129-6.21,3.055l-26.354,34.206c-2.657,0.395-5.298,0.844-7.923,1.334l-36.047-23.804
	c-2.029-1.341-4.567-1.662-6.865-0.873c-2.301,0.789-4.104,2.602-4.882,4.906l-13.934,41.251c-2.209,1.163-4.4,2.356-6.564,3.592
	l-42.205-10.911c-2.357-0.609-4.859-0.091-6.777,1.404c-1.919,1.494-3.037,3.793-3.025,6.226l0.217,44.199
	c-1.484,1.585-2.946,3.19-4.383,4.818l-44.123,3.437c-2.424,0.189-4.624,1.493-5.954,3.528c-1.33,2.035-1.64,4.573-0.839,6.87
	l14.763,42.318c-0.761,1.705-1.499,3.421-2.217,5.149l-41.184,17.823c-2.232,0.966-3.888,2.913-4.486,5.27
	c-0.598,2.357-0.066,4.859,1.437,6.77l28.244,35.921c-0.119,1.431-0.222,2.867-0.314,4.307L2.558,272.467
	c-1.798,1.638-2.732,4.018-2.532,6.441c0.201,2.424,1.516,4.617,3.557,5.937l39.121,25.284c0.25,0.979,0.515,1.953,0.778,2.928
	L21.085,353.96c-1.168,2.133-1.279,4.687-0.303,6.915s2.932,3.875,5.292,4.46l46.175,11.45c0.295,0.446,0.585,0.897,0.884,1.341
	L65.07,425.02c-0.412,2.397,0.312,4.849,1.959,6.639c1.492,1.62,3.586,2.53,5.768,2.53c0.228,0,0.458-0.009,0.687-0.03l48.099-4.225
	c0.149,0.116,0.301,0.23,0.451,0.346l7.713,47.669c0.389,2.401,1.869,4.485,4.008,5.642c1.161,0.628,2.445,0.945,3.732,0.945
	c1.084,0,2.169-0.225,3.184-0.675l44.37-19.725c0.054,0.019,0.109,0.039,0.163,0.057l22.899,42.816
	c1.147,2.144,3.224,3.635,5.623,4.035c0.43,0.072,0.861,0.108,1.29,0.108c1.964,0,3.876-0.739,5.338-2.098L256,475.911
	l35.647,33.143c1.462,1.359,3.373,2.098,5.338,2.098c0.429,0,0.86-0.036,1.29-0.108c2.399-0.4,4.476-1.891,5.623-4.035
	l22.898-42.816c0.054-0.019,0.109-0.039,0.163-0.057l44.37,19.725c1.016,0.452,2.101,0.675,3.184,0.675
	c1.286,0,2.57-0.317,3.732-0.945c2.139-1.157,3.619-3.242,4.008-5.642l7.713-47.669c0.149-0.115,0.301-0.23,0.451-0.346
	l48.099,4.225c0.23,0.021,0.458,0.03,0.687,0.03c2.18,0,4.276-0.91,5.768-2.53c1.647-1.79,2.371-4.242,1.959-6.639l-8.063-46.895
	c0.298-0.444,0.589-0.895,0.883-1.341l46.175-11.45c2.36-0.585,4.315-2.233,5.292-4.46c0.977-2.228,0.865-4.781-0.303-6.915
	l-22.397-40.902c0.262-0.974,0.529-1.947,0.779-2.928l39.121-25.284c2.043-1.32,3.356-3.513,3.557-5.937
	c0.201-2.423-0.735-4.803-2.532-6.441L475.623,241.643z M453.709,128.528l-6.411,18.379c-3.903-6.846-8.175-13.481-12.794-19.875
	L453.709,128.528z M401.055,71.331l-0.093,18.861c-5.75-5.037-11.759-9.773-17.997-14.186L401.055,71.331z M332.682,34.33
	l5.873,17.386c-6.911-2.798-13.96-5.242-21.118-7.319L332.682,34.33z M255.999,21.533l11.127,14.443
	c-3.687-0.185-7.396-0.28-11.127-0.28s-7.441,0.095-11.127,0.28L255.999,21.533z M179.317,34.33l15.244,10.067
	c-7.157,2.078-14.207,4.521-21.118,7.319L179.317,34.33z M129.033,76.007c-6.237,4.412-12.246,9.147-17.997,14.186l-0.093-18.861
	L129.033,76.007z M77.495,127.032c-4.62,6.395-8.89,13.03-12.794,19.875l-6.411-18.379L77.495,127.032z M20.641,277.201
	l15.391-14.029c0.017,0.492,0.051,0.985,0.071,1.477c0.307,7.733,1.016,15.443,2.136,23.101c0.044,0.301,0.077,0.603,0.122,0.903
	L20.641,277.201z M42.935,200.537c-1.294,4.988-2.426,10.033-3.361,15.101l-12.513-15.915l18.303-7.921
	C44.487,194.695,43.691,197.61,42.935,200.537z M39.726,352.564l10.358-18.916c3.128,8.267,6.755,16.34,10.865,24.179
	L39.726,352.564z M82.247,417.648l3.79-22.043c5.82,7.07,12.075,13.771,18.727,20.064L82.247,417.648z M143.597,465.399
	l-3.653-22.579c7.939,4.935,16.179,9.354,24.675,13.234L143.597,465.399z M217.128,490.642l-10.934-20.444
	c0.236,0.054,0.475,0.098,0.71,0.153c1.873,0.429,3.757,0.83,5.649,1.21c0.559,0.112,1.121,0.215,1.68,0.323
	c1.69,0.326,3.387,0.633,5.091,0.92c0.461,0.077,0.922,0.155,1.383,0.23c4.447,0.719,8.935,1.314,13.465,1.762L217.128,490.642z
	 M294.87,490.642l-17.044-15.847c4.527-0.447,9.012-1.041,13.456-1.76c0.469-0.075,0.938-0.155,1.406-0.233
	c1.693-0.285,3.378-0.591,5.058-0.915c0.57-0.11,1.139-0.214,1.708-0.328c1.895-0.382,3.782-0.784,5.659-1.213
	c0.229-0.052,0.461-0.095,0.69-0.148L294.87,490.642z M368.402,465.399l-21.022-9.345c8.496-3.88,16.736-8.3,24.674-13.234
	L368.402,465.399z M407.235,415.671c6.652-6.294,12.907-12.995,18.727-20.064l3.79,22.043L407.235,415.671z M302.267,454.835
	c-67.1,15.265-140.716-5.128-189.725-53.602c-44.206-43.724-66.551-106.52-59.67-168.331c3.758-33.75,16.124-66.317,35.605-94.123
	c41.407-59.103,112.889-92.715,184.811-86.668c69.534,5.846,132.95,48.642,164.483,110.823
	c22.778,44.916,28.572,97.776,15.481,146.455c-16.688,62.057-64.641,114.219-124.429,137.364
	C320.187,450.097,311.297,452.781,302.267,454.835z M472.273,352.564l-21.223,5.263c4.11-7.839,7.737-15.911,10.865-24.179
	L472.273,352.564z M471.899,212.99c-1.412-7.137-3.153-14.225-5.264-21.188l18.303,7.921l-12.513,15.915
	C472.262,214.752,472.073,213.872,471.899,212.99z M473.639,288.653c0.046-0.304,0.079-0.609,0.123-0.915
	c1.184-8.122,1.931-16.363,2.204-24.567l15.392,14.03L473.639,288.653z"/>
<path d="M289.593,276.09c-4.614,0-9.12,0.901-13.402,2.679c-1.453,0.429-8.504,1.841-20.191,1.841
	c-11.727,0-18.784-1.421-20.186-1.838c-4.281-1.778-8.79-2.679-13.404-2.679c-13.986,0-26.61,8.293-32.158,21.129
	c-6.004,13.893-2.446,29.976,8.852,40.038c0.01,0.009,0.02,0.021,0.031,0.03c2.791,2.479,5.944,4.487,9.368,5.968
	c14.866,6.425,36.14,7.385,47.497,7.385c11.361,0,32.64-0.96,47.504-7.388c3.421-1.48,6.571-3.486,9.36-5.964l0.001-0.001
	c11.326-10.063,14.894-26.167,8.88-40.075C316.195,284.382,303.574,276.09,289.593,276.09z M256,334.965
	c-15.475,0-29.165-1.785-38.294-4.946c0.029-0.018,0.056-0.037,0.085-0.054c10.463-6.639,23.224-8.863,35.434-9.193
	c0.915-0.025,1.837-0.042,2.774-0.042c13.103,0,26.931,2.177,38.212,9.237c0.028,0.018,0.054,0.036,0.083,0.053
	C285.167,333.18,271.477,334.965,256,334.965z M306.903,319.664c-0.368-0.1-0.758-0.541-1.067-0.768
	c-0.305-0.224-0.613-0.444-0.922-0.663c-0.708-0.501-1.428-0.984-2.16-1.448c-11.866-7.532-26.168-10.732-40.061-11.538
	c-1.08-0.063-2.161-0.108-3.241-0.14c-14.515-0.434-29.606,1.625-42.886,7.734c-4.06,1.868-7.97,4.113-11.494,6.883
	c-2.483-4.989-2.739-10.93-0.426-16.279c3.066-7.09,10.039-11.672,17.767-11.672c2.601,0,5.147,0.523,7.568,1.554
	c0.138,0.059,0.279,0.114,0.42,0.165c3.746,1.347,13.356,2.797,25.6,2.797c12.237,0,21.845-1.449,25.594-2.795
	c0.144-0.051,0.287-0.108,0.429-0.168c2.421-1.034,4.967-1.557,7.57-1.557c7.724,0,14.696,4.58,17.762,11.67
	c2.057,4.756,2.118,10.243,0.129,15.032C307.351,318.79,307.176,319.451,306.903,319.664z"/>
<g>
</g>
<g>
</g>
<g>
</g>
<g>
</g>
<g>
</g>
<g>
</g>
<g>
</g>
<g>
</g>
<g>
</g>
<g>
</g>
<g>
</g>
<g>
</g>
<g>
</g>
<g>
</g>
<g>
</g>
</svg>
